# xmcd
#
# Track frame offsets:
#	150
#	20732
#	36590
#	52115
#	73396
#	89340
#	103439
#	122979
#	139492
#	150057
#	164652
#	191826
#
# Disc length: 2810 seconds
#
# Revision: 13
# Processed by: cddbd v1.5.2PL0 Copyright (c) Steve Scherf et al.
# Submitted via: Jack! The Knife 20 Magnifico
#
DISCID=bf0af80c
DTITLE=Slayer - Diabolus In Musica
DYEAR=1998
DGENRE=Metal
TTITLE0=Bitter Peace
TTITLE1=Death's Head
TTITLE2=Stain Of Mind
TTITLE3=Overt Enemy
TTITLE4=Perversions Of Pain
TTITLE5=Love To Hate
TTITLE6=Desire
TTITLE7=In The Name Of God
TTITLE8=Scrum
TTITLE9=Screaming From The Sky
TTITLE10=Wicked
TTITLE11=Point
EXTD=Rick Rubin
EXTT0=Jeff Hanneman
EXTT1=Jeff Hanneman
EXTT2=Jeff Hanneman
EXTT3=Jeff Hanneman
EXTT4=Jeff Hanneman
EXTT5=Jeff Hanneman
EXTT6=Jeff Hanneman
EXTT7=Kerry King
EXTT8=Jeff Hanneman
EXTT9=Jeff Hanneman
EXTT10=Hanneman, King
EXTT11=Jeff Hanneman
PLAYORDER=
